<svg width="130" height="27" viewBox="0 0 130 27" fill="none" xmlns="http://www.w3.org/2000/svg">
<rect width="130" height="27" fill="black"/>
<path d="M14.352 13.552C14.352 14.704 14.144 15.792 13.728 16.816C13.328 17.824 12.76 18.72 12.024 19.504C11.288 20.288 10.424 20.904 9.432 21.352C8.456 21.784 7.4 22 6.264 22H1.2V5.128H6.264C7.416 5.128 8.48 5.352 9.456 5.8C10.448 6.248 11.304 6.864 12.024 7.648C12.76 8.432 13.328 9.328 13.728 10.336C14.144 11.344 14.352 12.416 14.352 13.552ZM11.376 13.552C11.376 12.512 11.152 11.584 10.704 10.768C10.256 9.936 9.64 9.28 8.856 8.8C8.088 8.32 7.224 8.08 6.264 8.08H4.08V19.048H6.264C7.24 19.048 8.112 18.8 8.88 18.304C9.648 17.808 10.256 17.144 10.704 16.312C11.152 15.48 11.376 14.56 11.376 13.552ZM22.0727 22.312C20.9207 22.312 19.9047 22.064 19.0247 21.568C18.1607 21.056 17.4807 20.352 16.9847 19.456C16.5047 18.544 16.2647 17.488 16.2647 16.288C16.2647 14.176 16.7927 12.584 17.8487 11.512C18.9207 10.424 20.3287 9.88 22.0727 9.88C23.2087 9.88 24.2087 10.12 25.0727 10.6C25.9527 11.08 26.6407 11.8 27.1367 12.76C27.6327 13.704 27.8807 14.88 27.8807 16.288C27.8807 17.488 27.6327 18.544 27.1367 19.456C26.6407 20.352 25.9527 21.056 25.0727 21.568C24.2087 22.064 23.2087 22.312 22.0727 22.312ZM22.0727 19.552C22.7287 19.552 23.2807 19.4 23.7287 19.096C24.1927 18.776 24.5367 18.368 24.7607 17.872C25.0007 17.376 25.1207 16.848 25.1207 16.288C25.1207 15.28 24.8567 14.424 24.3287 13.72C23.8167 13 23.0647 12.64 22.0727 12.64C21.1127 12.64 20.3607 12.984 19.8167 13.672C19.2887 14.36 19.0247 15.232 19.0247 16.288C19.0247 16.864 19.1447 17.4 19.3847 17.896C19.6247 18.392 19.9687 18.792 20.4167 19.096C20.8807 19.4 21.4327 19.552 22.0727 19.552ZM40.1428 22H37.2628V21.064C37.0708 21.448 36.7028 21.736 36.1588 21.928C35.6308 22.12 35.0228 22.216 34.3348 22.216C33.6628 22.216 33.0068 22.128 32.3668 21.952C31.7428 21.76 31.2308 21.488 30.8308 21.136C29.8388 20.24 29.3428 18.912 29.3428 17.152V10H32.2228V17.152C32.2228 17.968 32.4628 18.56 32.9428 18.928C33.4388 19.28 34.0548 19.456 34.7908 19.456C35.1588 19.456 35.5348 19.376 35.9188 19.216C36.3028 19.056 36.6228 18.808 36.8788 18.472C37.1348 18.136 37.2628 17.696 37.2628 17.152V10H40.1428V22ZM53.1278 15.784C53.1278 16.632 53.0158 17.456 52.7918 18.256C52.5838 19.056 52.2558 19.768 51.8078 20.392C51.3598 21 50.7838 21.464 50.0798 21.784C49.6158 21.992 49.0718 22.088 48.4478 22.072C47.8238 22.072 47.2318 21.984 46.6718 21.808C46.1278 21.616 45.7118 21.36 45.4238 21.04V22H42.5438V5.2H45.4238V10.408C45.7278 10.184 46.1278 10.032 46.6238 9.952C47.1198 9.872 47.5438 9.832 47.8958 9.832C49.0318 9.832 49.9838 10.104 50.7518 10.648C51.5358 11.176 52.1278 11.888 52.5278 12.784C52.9278 13.68 53.1278 14.68 53.1278 15.784ZM50.2238 15.784C50.2238 14.904 49.9918 14.216 49.5278 13.72C49.0798 13.208 48.4878 12.896 47.7518 12.784C47.0318 12.672 46.2558 12.784 45.4238 13.12V18.64C46.2718 19.152 47.0558 19.368 47.7758 19.288C48.5118 19.192 49.1038 18.848 49.5518 18.256C49.9998 17.648 50.2238 16.824 50.2238 15.784ZM57.9394 22H55.0594V5.2H57.9394V22ZM71.5888 17.104H63.1888C63.2528 17.824 63.5248 18.376 64.0048 18.76C64.4848 19.144 65.0768 19.368 65.7808 19.432C66.4848 19.48 67.2048 19.384 67.9408 19.144C68.6928 18.888 69.3648 18.504 69.9568 17.992L71.5408 20.176C70.6608 20.912 69.7648 21.44 68.8528 21.76C67.9568 22.064 67.0688 22.216 66.1888 22.216C64.1568 22.216 62.6288 21.648 61.6048 20.512C60.5968 19.376 60.0928 17.768 60.0928 15.688C60.0928 14.504 60.3248 13.472 60.7888 12.592C61.2688 11.712 61.9408 11.032 62.8048 10.552C63.6848 10.072 64.7168 9.84 65.9008 9.856C68.4928 9.888 70.2208 10.904 71.0848 12.904C71.3248 13.48 71.4768 14.112 71.5408 14.8C71.6208 15.488 71.6368 16.256 71.5888 17.104ZM66.1648 12.544C65.1888 12.544 64.4448 12.808 63.9328 13.336C63.4368 13.864 63.1888 14.448 63.1888 15.088H69.1168C69.1168 14.432 68.8608 13.848 68.3488 13.336C67.8528 12.808 67.1248 12.544 66.1648 12.544ZM90.8946 22.264C89.7426 22.264 88.6786 22.04 87.7026 21.592C86.7266 21.128 85.8626 20.52 85.1106 19.768C84.3586 19 83.7666 18.104 83.3346 17.08C82.9026 16.04 82.6866 14.888 82.6866 13.624C82.6866 12.392 82.9026 11.256 83.3346 10.216C83.7826 9.16 84.3746 8.24 85.1106 7.456C85.8466 6.688 86.7026 6.08 87.6786 5.632C88.6706 5.184 89.7426 4.96 90.8946 4.96C92.1106 4.96 93.2706 5.24 94.3746 5.8C95.4786 6.344 96.5026 7.192 97.4466 8.344L95.1186 10.264C94.4626 9.448 93.7826 8.864 93.0786 8.512C92.3746 8.144 91.6466 7.96 90.8946 7.96C90.1746 7.96 89.5026 8.104 88.8786 8.392C88.2706 8.68 87.7186 9.08 87.2226 9.592C86.7426 10.088 86.3666 10.68 86.0946 11.368C85.8226 12.04 85.6866 12.792 85.6866 13.624C85.6866 14.456 85.8226 15.208 86.0946 15.88C86.3666 16.536 86.7426 17.12 87.2226 17.632C87.7026 18.144 88.2546 18.544 88.8786 18.832C89.5026 19.12 90.1746 19.264 90.8946 19.264C91.6466 19.264 92.3746 19.088 93.0786 18.736C93.7826 18.368 94.4626 17.776 95.1186 16.96L97.4466 18.88C96.5026 20.032 95.4786 20.888 94.3746 21.448C93.2706 21.992 92.1106 22.264 90.8946 22.264ZM111.35 22L109.838 20.368C108.798 21.152 107.774 21.664 106.766 21.904C105.758 22.144 104.806 22.176 103.91 22C103.014 21.808 102.222 21.456 101.534 20.944C100.846 20.432 100.31 19.824 99.9261 19.12C99.5421 18.4 99.3581 17.632 99.3741 16.816C99.3901 16 99.6461 15.192 100.142 14.392C100.654 13.576 101.462 12.832 102.566 12.16L101.822 11.152C101.39 10.48 101.182 9.784 101.198 9.064C101.214 8.328 101.406 7.648 101.774 7.024C102.158 6.4 102.67 5.896 103.31 5.512C103.966 5.112 104.694 4.912 105.494 4.912C106.79 4.912 107.782 5.184 108.47 5.728C109.158 6.272 109.71 7.112 110.126 8.248L107.558 9.16C107.35 8.52 107.094 8.088 106.79 7.864C106.486 7.624 106.054 7.512 105.494 7.528C105.142 7.528 104.83 7.664 104.558 7.936C104.286 8.192 104.11 8.496 104.03 8.848C103.95 9.2 104.014 9.52 104.222 9.808L109.718 16.312C109.814 15.864 109.886 15.352 109.934 14.776C109.998 14.2 109.998 13.504 109.934 12.688H112.478C112.51 13.92 112.478 15 112.382 15.928C112.286 16.84 112.014 17.672 111.566 18.424L114.854 22H111.35ZM108.11 18.472L104.03 13.864C103.214 14.504 102.686 15.16 102.446 15.832C102.206 16.504 102.19 17.128 102.398 17.704C102.622 18.264 103.014 18.704 103.574 19.024C104.134 19.344 104.806 19.48 105.59 19.432C106.39 19.368 107.23 19.048 108.11 18.472ZM117.005 22V5.2H123.389C124.269 5.2 125.037 5.424 125.693 5.872C126.349 6.304 126.853 6.88 127.205 7.6C127.573 8.32 127.757 9.104 127.757 9.952C127.757 10.464 127.677 10.992 127.517 11.536C127.357 12.08 127.117 12.584 126.797 13.048C127.341 13.496 127.765 14.056 128.069 14.728C128.373 15.4 128.525 16.12 128.525 16.888C128.525 17.512 128.405 18.128 128.165 18.736C127.941 19.344 127.621 19.896 127.205 20.392C126.805 20.872 126.333 21.264 125.789 21.568C125.261 21.856 124.693 22 124.085 22H117.005ZM119.957 12.16H123.317C123.605 12.16 123.861 12.048 124.085 11.824C124.309 11.6 124.485 11.32 124.613 10.984C124.757 10.648 124.829 10.304 124.829 9.952C124.829 9.488 124.701 9.08 124.445 8.728C124.189 8.376 123.837 8.2 123.389 8.2H119.957V12.16ZM119.957 19H124.085C124.341 19 124.581 18.896 124.805 18.688C125.029 18.464 125.213 18.192 125.357 17.872C125.501 17.552 125.573 17.224 125.573 16.888C125.573 16.376 125.437 15.944 125.165 15.592C124.909 15.224 124.573 15.04 124.157 15.04H119.957V19Z" fill="white"/>
</svg>
